<svg width="12" height="25" viewBox="0 0 12 25" fill="#ccc" xmlns="http://www.w3.org/2000/svg">
<g clip-path="url(#clip0)">
<path d="M0.985899 13.186L10.622 24.7173C10.9377 25.0949 11.4488 25.0942 11.764 24.7153C12.0789 24.3365 12.0781 23.7228 11.7624 23.3449L2.69992 12.5L11.7627 1.6551C12.0784 1.2771 12.0792 0.663801 11.7643 0.284901C11.6063 0.0950007 11.3993 5.2511e-08 11.1924 7.06067e-08C10.9859 8.86563e-08 10.7797 0.094301 10.622 0.283001L0.985899 11.8139C0.833899 11.9955 0.748499 12.2425 0.748499 12.5C0.748499 12.7574 0.834099 13.0042 0.985899 13.186Z" fill="#ccc"/>
</g>
<defs>
<clipPath id="clip0">
<rect width="12" height="25" fill="white" transform="translate(12 25) rotate(180)"/>
</clipPath>
</defs>
</svg>
