<?xml version="1.0" encoding="utf-8"?><svg width="12" height="25" fill="#ccc" xmlns="http://www.w3.org/2000/svg" viewBox="0 0 12 25"><g clip-path="url(#bclip0)"><path d="M.986 13.186l9.636 11.531c.316.378.827.377 1.142-.002a1.11 1.11 0 00-.002-1.37L2.7 12.5l9.063-10.845a1.11 1.11 0 00.001-1.37.744.744 0 00-.572-.285.743.743 0 00-.57.283L.986 11.813a1.074 1.074 0 00-.238.687c0 .257.086.504.238.686z"/></g><defs><clipPath id="bclip0"><path fill="#fff" transform="rotate(180 6 12.5)" d="M0 0h12v25H0z"/></clipPath></defs></svg>