<?xml version="1.0" encoding="utf-8"?><svg viewBox="0 0 512 512" xmlns="http://www.w3.org/2000/svg" xmlns:xlink="http://www.w3.org/1999/xlink"><style>:root>svg{display:none}:root>svg:target{display:block}</style><svg fill="none" viewBox="0 0 8 13" id="ic_arr-right" xmlns="http://www.w3.org/2000/svg"><path d="M4.906 6.99l-4.49 4.49a.65.65 0 00-.19.464c0 .175.067.34.19.464l.394.393a.651.651 0 00.464.192c.176 0 .34-.068.464-.192l5.345-5.345a.651.651 0 00.192-.465.651.651 0 00-.192-.467l-5.34-5.34A.651.651 0 001.28.994a.651.651 0 00-.464.192l-.393.393a.657.657 0 000 .928L4.906 6.99z" fill="#939393"/></svg><svg fill="#ccc" viewBox="0 0 12 25" id="ic_arrow-left" xmlns="http://www.w3.org/2000/svg"><g clip-path="url(#bclip0)"><path d="M.986 13.186l9.636 11.531c.316.378.827.377 1.142-.002a1.11 1.11 0 00-.002-1.37L2.7 12.5l9.063-10.845a1.11 1.11 0 00.001-1.37.744.744 0 00-.572-.285.743.743 0 00-.57.283L.986 11.813a1.074 1.074 0 00-.238.687c0 .257.086.504.238.686z"/></g><defs><clipPath id="bclip0"><path fill="#fff" transform="rotate(180 6 12.5)" d="M0 0h12v25H0z"/></clipPath></defs></svg><svg fill="none" viewBox="0 0 41 18" id="ic_body" xmlns="http://www.w3.org/2000/svg"><path d="M39.289 9.404c-.442-1.013-1.313-1.577-2.615-2.055-1.013-.374-1.57-.667-2.251-1.516C31.9 2.704 31.063 0 27.309 0l-8.826.068c-1.52 0-2.88 1.363-4.085 2.312L9.496 6.94a2.196 2.196 0 01-1.045.538L3.024 8.59c-.5.132-.902.503-1.077.999L.313 14.092C-.005 15.17.17 15.655.745 16.49c.574.838 1.056 1.298 1.056 1.298l4.084.004c-.003-.082-.01-.493-.01-.575 0-2.536 2.012-4.591 4.495-4.591s4.495 2.055 4.495 4.591c0 .082-.007.496-.01.575h10.47a29.786 29.786 0 01-.01-.575c0-2.536 2.012-4.591 4.495-4.591s4.495 2.055 4.495 4.591c0 .082-.007.496-.01.575h3.239c2.009 0 2.676-1.688 2.619-3.721-.068-2.037-.382-3.571-.864-4.667zM22.293 8.291c0 .35-.268.635-.596.635h-9.978c-.36 0-.528-.478-.257-.728 0 0 4.798-4.655 5.433-5.13.635-.474 1.242-.845 2.044-.845l2.755.003c.328 0 .596.286.596.635v5.43h.003zm10.268.635h-8.388c-.328 0-.596-.285-.596-.635V2.865c0-.35.264-.635.593-.635l3.546-.018c1.413-.007 1.966.849 2.615 1.762.774 1.092 2.387 3.6 2.65 4.075.26.47-.085.877-.42.877z" fill="#16162D"/></svg><svg fill="none" viewBox="0 0 38 26" id="ic_chass" xmlns="http://www.w3.org/2000/svg"><g clip-path="url(#dclip0)"><path d="M36.253 4.249V.98a.98.98 0 00-.981-.98h-7.896a.98.98 0 00-.98.981V4.25a.98.98 0 00.98.981h2.465v5.992h-7.367c-.753-2.177-2.697-3.947-5.45-3.947-2.751 0-4.696 1.775-5.449 3.947H8.643c-.447-1.081-1.196-1.465-2.136-1.866V5.23h2.465a.98.98 0 00.98-.981V.98a.98.98 0 00-.98-.98H1.074a.98.98 0 00-.98.981V4.25a.98.98 0 00.981.981H3.54v4.126C2.006 9.82.961 11.149.961 12.902c0 1.752 1.013 3.062 2.579 3.546v4.322H1.074a.98.98 0 00-.98.98v3.268a.98.98 0 00.981.982h7.896a.98.98 0 00.98-.981V21.75a.98.98 0 00-.98-.981H6.506v-4.322c.94-.397 1.689-.785 2.136-1.867h2.934c.754 2.177 2.675 3.948 5.45 3.948 2.774 0 4.696-1.775 5.449-3.948h7.366v6.184h-2.465a.98.98 0 00-.98.982v3.267a.98.98 0 00.98.981h7.896a.98.98 0 00.981-.98v-3.268a.98.98 0 00-.981-.982h-2.465V5.225h2.465a.97.97 0 00.981-.976zM17.026 15.458a2.55 2.55 0 11-.002-5.102 2.55 2.55 0 01.002 5.102z" fill="#16162D"/></g><defs><clipPath id="dclip0"><path fill="#fff" transform="translate(.094)" d="M0 0h37v26H0z"/></clipPath></defs></svg><svg fill="none" viewBox="0 0 31 31" id="ic_count" xmlns="http://www.w3.org/2000/svg"><path d="M15.161.878c8.284 0 15 6.716 15 15 0 2.34-.551 4.546-1.507 6.52l1.507 8.48-8.48-1.507a14.914 14.914 0 01-6.52 1.507c-8.284 0-15-6.716-15-15 0-8.284 6.716-15 15-15z" fill="#49A41F"/></svg><svg fill="none" viewBox="0 0 27 27" id="ic_electric" xmlns="http://www.w3.org/2000/svg"><g clip-path="url(#fclip0)"><path d="M17.088 11.291L22.03.5.788 15.282h9.7L5.542 26.077l21.246-14.786h-9.7z" fill="#16162D"/></g><defs><clipPath id="fclip0"><path fill="#fff" transform="translate(.788 .5)" d="M0 0h26v26H0z"/></clipPath></defs></svg><svg fill="none" viewBox="0 0 35 26" id="ic_engin" xmlns="http://www.w3.org/2000/svg"><path d="M33.27 6.88h-2.283a.838.838 0 00-.836.835v1.341h-4.092L24.798 7.03a2.261 2.261 0 00-1.951-1.12h-3.331V3.16h4.499c.517 0 .938-.42.938-.938V.938A.938.938 0 0024.014 0H11.84a.938.938 0 00-.938.938V2.22c0 .517.42.938.938.938h4.03V5.91h-2.646c-.65 0-1.27.28-1.698.766L9.323 9.052h-1.88c-.607 0-1.093.49-1.093 1.092v3.765H3.359V8.77a.938.938 0 00-.938-.938h-1.39a.938.938 0 00-.937.936v13.609c0 .517.42.938.938.938h1.389c.518 0 .938-.42.938-.938v-4.818h2.99v3.849c0 .606.492 1.093 1.093 1.093h3.46l2.517 2.76c.43.47 1.035.739 1.672.739h7.96c.636 0 1.242-.265 1.671-.739l2.518-2.76h2.915v1.31c0 .46.376.835.836.835h2.283a.829.829 0 00.828-.827V7.698a.83.83 0 00-.832-.819v.001zm-8.455 9.25c0 .518-.283.938-.637.938h-11.82c-.35 0-.638-.42-.638-.938v-1.066c0-.518.284-.938.637-.938h11.821c.35 0 .637.42.637.938v1.066z" fill="#16162D"/></svg><svg fill="none" viewBox="0 0 15 9" id="ic_eye" xmlns="http://www.w3.org/2000/svg"><path d="M14.806 4.077c-.132-.156-3.28-3.8-7.306-3.8-4.025 0-7.174 3.644-7.306 3.8a.808.808 0 000 1.052c.132.155 3.28 3.799 7.306 3.799 4.025 0 7.174-3.644 7.306-3.8a.808.808 0 000-1.051zM8.73 2.467c.27-.148.648.021.842.378.195.357.134.766-.137.914-.27.148-.648-.022-.843-.379-.195-.357-.133-.766.138-.914zM7.5 7.606c-2.812 0-5.178-2.159-5.997-3.004.553-.572 1.812-1.741 3.437-2.44a3.062 3.062 0 105.12 0c1.625.699 2.884 1.868 3.437 2.44-.82.846-3.185 3.005-5.997 3.005z" fill="#CCC"/></svg><svg viewBox="0 0 512 512" id="ic_filter" xmlns="http://www.w3.org/2000/svg"><path d="M487.976 0H24.028C2.71 0-8.047 25.866 7.058 40.971L192 225.941V432c0 7.831 3.821 15.17 10.237 19.662l80 55.98C298.02 518.69 320 507.493 320 487.98V225.941l184.947-184.97C520.021 25.896 509.338 0 487.976 0z"/></svg><svg fill="none" viewBox="0 0 20 20" id="ic_find" xmlns="http://www.w3.org/2000/svg"><g clip-path="url(#jclip0)" fill="#000"><path d="M8.456.5C3.843.5.09 4.254.09 8.867c0 4.614 3.754 8.367 8.367 8.367 4.614 0 8.367-3.753 8.367-8.367C16.823 4.254 13.07.5 8.456.5zm0 15.19a6.83 6.83 0 01-6.822-6.823 6.83 6.83 0 016.822-6.822 6.83 6.83 0 016.822 6.822 6.83 6.83 0 01-6.822 6.823z"/><path d="M18.863 18.182l-4.429-4.429a.772.772 0 10-1.092 1.092l4.428 4.429a.77.77 0 001.093 0 .772.772 0 000-1.092z"/></g><defs><clipPath id="jclip0"><path fill="#fff" transform="translate(.089 .5)" d="M0 0h19v19H0z"/></clipPath></defs></svg><svg viewBox="0 0 28 28" id="ic_oil" xmlns="http://www.w3.org/2000/svg"><g clip-path="url(#kclip0)"><path d="M23.87 9.39l-7.858 1.97-1.106-1.106h-4.559V9.108h1.72V7.527H7.046v1.581h1.72v1.146H.336v4.98H3.31v3.723h12.383l5.95-7.378 1.742-.437 1.155 1.155 1.118-1.118-1.789-1.79zM3.31 13.652H1.917v-1.816H3.31v1.816zM26.905 16.212l-1.806-2.483-1.806 2.483c-.65.893-.554 2.11.227 2.891.422.422.983.654 1.579.654s1.157-.232 1.579-.654a2.222 2.222 0 00.227-2.892z"/></g><defs><clipPath id="kclip0"><path fill="#fff" transform="translate(.335 .142)" d="M0 0h27v27H0z"/></clipPath></defs></svg><svg viewBox="0 0 51 51" id="ic_play" xmlns="http://www.w3.org/2000/svg"><circle cx="25.575" cy="25.244" r="24"/><path d="M32.075 25.244l-9.75 6.279V18.965l9.75 6.28z" fill="#fff" stroke="#fff"/></svg><svg fill="none" viewBox="0 0 34 33" id="ic_ras" xmlns="http://www.w3.org/2000/svg"><g clip-path="url(#mclip0)" fill="#16162D"><path d="M17.623.029h-.057C8.53.689 1.223 7.997.568 17.026a.772.772 0 00.765.813h7.428a.392.392 0 00.382-.349c.493-4.524 4.32-8.34 8.906-8.877a.382.382 0 00.334-.377V.799a.754.754 0 00-.248-.565.74.74 0 00-.512-.205z"/><path d="M19.699 4.558v3.907c0 .746-.555 1.373-1.297 1.459-4.026.473-7.513 3.946-7.948 7.91A1.476 1.476 0 018.99 19.16H5.093c.286 7.518 6.47 13.525 14.056 13.525 7.771 0 14.07-6.298 14.07-14.07.01-7.585-6.002-13.77-13.52-14.056zm-.546 19.135a5.074 5.074 0 115.075-5.074 5.068 5.068 0 01-5.075 5.074z"/></g><defs><clipPath id="mclip0"><path fill="#fff" transform="translate(.477)" d="M0 0h33v33H0z"/></clipPath></defs></svg><svg fill="none" viewBox="0 0 13 8" id="ic_select" xmlns="http://www.w3.org/2000/svg"><path d="M6.503 5.217L2.013.728A.65.65 0 001.55.537a.651.651 0 00-.464.191l-.393.393a.651.651 0 00-.192.465c0 .175.068.34.192.464l5.345 5.345c.124.124.29.192.465.191a.651.651 0 00.466-.191l5.34-5.34a.651.651 0 00.192-.464.651.651 0 00-.192-.465l-.393-.393a.657.657 0 00-.928 0L6.503 5.217z" fill="#939393"/></svg><svg fill="none" viewBox="0 0 16 16" id="ic_share" xmlns="http://www.w3.org/2000/svg"><path d="M6.643 3.712V1.019a.536.536 0 00-.934-.358L.888 6.018a.536.536 0 00-.017.696l4.821 5.893a.536.536 0 00.95-.338V9.6c4.233.138 6.874 1.947 8.064 5.518a.536.536 0 001.044-.17c0-6.308-3.798-10.942-9.107-11.235z" fill="#CCC"/></svg><svg fill="none" viewBox="0 0 13 8" id="ic_subcat-back" xmlns="http://www.w3.org/2000/svg"><path d="M.646 3.646a.5.5 0 000 .708l3.182 3.182a.5.5 0 10.708-.708L1.707 4l2.829-2.828a.5.5 0 10-.708-.708L.646 3.646zM1 4.5h12v-1H1v1z" fill="#6A6A6A"/></svg><svg fill="none" viewBox="0 0 33 26" id="ic_transm" xmlns="http://www.w3.org/2000/svg"><g clip-path="url(#qclip0)" fill="#16162D"><path d="M26.84 4.663v7.098a.435.435 0 01-.433.433h-8.18v-7.53h-2.984v7.53H6.636v-7.53H3.653v18.044h2.983v-7.531h8.608v7.53h2.983v-7.53h9.05a2.542 2.542 0 002.54-2.542V4.668H26.84v-.005z"/><path d="M7.376 6.993a3.297 3.297 0 10-4.583-4.74 3.297 3.297 0 004.583 4.74zM19.942 5.45a3.297 3.297 0 10-6.417-1.517 3.297 3.297 0 006.417 1.518V5.45zM5.05 26a3.296 3.296 0 10.115-6.592A3.296 3.296 0 005.05 26zm11.688 0a3.296 3.296 0 10.115-6.592A3.296 3.296 0 0016.737 26zM31.49 5.193A3.297 3.297 0 1025 4.03a3.297 3.297 0 006.491 1.163z"/></g><defs><clipPath id="qclip0"><path fill="#fff" transform="translate(.383)" d="M0 0h32v26H0z"/></clipPath></defs></svg><svg fill="none" viewBox="0 0 21 21" id="ic_user" xmlns="http://www.w3.org/2000/svg"><g clip-path="url(#rclip0)" fill="#000"><path d="M10.089 11.765c-6.01 0-9.319 2.843-9.319 8.005 0 .403.327.73.73.73h17.178a.73.73 0 00.73-.73c0-5.162-3.31-8.005-9.32-8.005zM2.256 19.04c.288-3.86 2.919-5.815 7.833-5.815s7.545 1.956 7.832 5.815H2.256zM10.089.5c-2.76 0-4.842 2.123-4.842 4.939 0 2.898 2.172 5.255 4.842 5.255 2.67 0 4.842-2.357 4.842-5.255C14.93 2.623 12.849.5 10.089.5zm0 8.735c-1.865 0-3.382-1.703-3.382-3.796 0-2.016 1.422-3.48 3.382-3.48 1.928 0 3.382 1.496 3.382 3.48 0 2.093-1.517 3.796-3.382 3.796z"/></g><defs><clipPath id="rclip0"><path fill="#fff" transform="translate(.089 .5)" d="M0 0h20v20H0z"/></clipPath></defs></svg><svg fill="none" viewBox="0 0 191 37" id="logo" xmlns="http://www.w3.org/2000/svg"><path d="M50.886 14.463h-3.453c-.677 0-1.261.373-1.582.92L43.507 1.817s-1.78.323-3.789.114c-2.755-.283-7.366-3.527-13.395-.09-5.644-3.35-10.273-.143-13.195.108-2.206.188-4.06-.104-4.06-.104L6.778 15.4a1.82 1.82 0 00-1.59-.938H1.737a1.51 1.51 0 00-1.076.45 1.535 1.535 0 00-.445 1.084v1.57a1.544 1.544 0 00.446 1.085 1.52 1.52 0 001.075.448h3.115A5.394 5.394 0 003.5 20.93c-.315.7-.478 1.46-.478 2.229v11.819c0 .408.161.8.448 1.09.286.288.675.45 1.08.45h7.976c.405 0 .793-.162 1.08-.45.287-.29.448-.682.448-1.09v-3.29h24.527v3.29a1.55 1.55 0 00.448 1.09 1.527 1.527 0 001.08.45h7.976a1.516 1.516 0 001.08-.45 1.54 1.54 0 00.448-1.09V23.159c0-.77-.164-1.53-.48-2.23a5.397 5.397 0 00-1.351-1.83h3.096a1.51 1.51 0 001.077-.448 1.532 1.532 0 00.445-1.084v-1.57a1.533 1.533 0 00-.44-1.086 1.508 1.508 0 00-1.074-.448zM9.871 27.758c-.76 0-1.489-.305-2.026-.846a2.9 2.9 0 010-4.084 2.859 2.859 0 012.026-.843 2.84 2.84 0 012.023.845 2.887 2.887 0 01.838 2.04 2.9 2.9 0 01-.838 2.04 2.852 2.852 0 01-2.023.848zm2.145-11.04c-.492 0-.984-.035-1.493-.111l1.742-11.499c.107.004.214.008.321.008 1.66 0 3.179-.435 4.644-.856 1.357-.388 2.75-.7 4.051-.7 1.215 0 2.255.513 3.375 1.24.213.135.338.38.338.639l-.11 11.228c-1.86-1.065-3.36-1.565-4.89-1.565-1.332 0-2.47.37-3.674.765-1.29.417-2.618.85-4.304.85zm23.102 9.825a1.12 1.12 0 01-1.116 1.125H18.516c-.296 0-.58-.119-.789-.33a1.13 1.13 0 010-1.59c.21-.21.493-.329.789-.329h15.486a1.12 1.12 0 011.116 1.124zm1.21-10.68c-1.2-.395-2.336-.765-3.672-.765-1.529 0-3.03.5-4.89 1.566l-.11-11.229a.755.755 0 01.339-.64c1.122-.725 2.163-1.238 3.385-1.238 1.307 0 2.712.312 4.076.703 1.46.42 2.972.852 4.611.852.104 0 .21 0 .314-.008l1.739 11.5c-.51.075-1.001.11-1.493.11-1.682.004-3.011-.43-4.298-.85zm6.537 11.895a2.843 2.843 0 01-2.024-.847 2.887 2.887 0 01-.837-2.042c0-.765.301-1.498.838-2.04a2.85 2.85 0 012.023-.844 2.85 2.85 0 012.023.845c.537.54.838 1.274.838 2.04a2.9 2.9 0 01-.837 2.04 2.853 2.853 0 01-2.024.848zm21.098-8.615h2.594c.503 0 .913.41.913.92v15.59c0 .506-.406.92-.913.92h-2.594a.916.916 0 01-.912-.92v-15.59c0-.507.41-.92.912-.92zm16.015 3.872c-1.496 0-2.726.622-3.763 1.667v10.97c0 .507-.406.92-.912.92h-2.594a.916.916 0 01-.913-.92v-15.59c0-.506.406-.919.913-.919h2.587c.505 0 .919.413.919.923v.665c1.037-.97 2.883-1.897 4.957-1.897 4.226 0 7.105 2.051 7.105 7.512v9.302c0 .507-.406.92-.912.92H84.77a.907.907 0 01-.843-.568.925.925 0 01-.07-.352v-8.527c0-2.787-1.42-4.105-3.88-4.105zm16.538.406v12.232c0 .506-.406.92-.913.92h-2.59a.908.908 0 01-.648-.27.922.922 0 01-.268-.654V17.566c0-4.935 2.306-7.385 6.147-7.375a8.006 8.006 0 013.948 1.074c.663.385.684 1.103.46 1.639-.149.355-.303.692-.303.692-.445.888-.752 1.196-1.678.956-.624-.161-1.012-.226-1.618-.237-1.497-.028-2.537 1.1-2.537 3.502v1.42h3.773c.503 0 .913.41.913.919v2.346a.915.915 0 01-.913.919h-3.773zm26.34 8.037c0-3.833 2.806-5.655 6.301-5.655 1.536 0 3.072.503 3.92 1.125v-.543c0-2.554-.805-3.952-3.228-3.952a11.01 11.01 0 00-3.343.546c-.738.295-1.197-.06-1.465-.624-.267-.564-.409-1.057-.399-1.437.018-.51.196-.798 1.34-1.352.787-.38 2.559-.854 4.326-.854 5.109 0 6.913 2.633 6.913 7.242v9.691c0 .507-.407.92-.912.92h-2.096a.84.84 0 01-.837-.844v-1.17c-.923 1.313-2.765 2.244-5.11 2.244-3.143.008-5.41-1.968-5.41-5.338zm10.221-1.782c-.77-.582-1.768-.852-3.037-.852-1.46 0-2.764.697-2.764 2.17 0 1.318 1.075 2.05 2.458 2.05 1.843 0 2.804-.811 3.343-1.586v-1.782zm15.373 3.175c1.46 0 2.883-.812 3.88-2.13v-10.66c0-.505.406-.918.913-.918h2.594c.502 0 .912.409.912.918v15.591c0 .506-.406.92-.912.92h-2.669a.84.84 0 01-.838-.844v-1.272c-1.037 1.278-2.844 2.54-5.53 2.54-3.382 0-6.069-2.205-6.069-7.203v-9.73c0-.507.407-.92.912-.92h2.595c.502 0 .912.41.912.92v8.8c-.003 2.325.88 3.988 3.3 3.988zm22.667 1.735c.099.378-.033.815-.514 1.11-1.475.916-2.775 1.261-4.504 1.261-3.92 0-5.377-2.558-5.377-7.009V14.951c0-.507.406-.92.912-.92h2.594c.502 0 .912.41.912.92v4.195h4.216c.502 0 .912.41.912.92v2.346c0 .506-.406.92-.912.92h-4.216v6.35c0 1.897.617 3.137 2.074 3.137.46 0 .88-.094 1.23-.194.473-.137 1.055-.295 1.382-.162.293.119.47.33.691.74.282.524.499.992.6 1.383zM66.498 11.934h-2.473a1.138 1.138 0 00-.812.338 1.155 1.155 0 00-.336.818v2.288a1.164 1.164 0 00.336.819 1.145 1.145 0 00.812.338h2.472a1.14 1.14 0 001.06-.714c.058-.14.088-.29.088-.443V13.09c0-.635-.513-1.156-1.148-1.156h.001zm45.465 6.785h-.58c-4.929 0-8.923 4.027-8.923 8.995V28c0 4.969 3.994 8.995 8.923 8.995h.58c4.929 0 8.924-4.027 8.924-8.995v-.287c0-4.968-3.995-8.995-8.924-8.995zm-.288 14.128c-2.712 0-4.914-2.234-4.914-4.989 0-2.756 2.199-4.994 4.914-4.994 2.712 0 4.914 2.236 4.914 4.994 0 2.758-2.202 4.99-4.914 4.99v-.001zm70.15-14.128h-.581c-4.929 0-8.923 4.027-8.923 8.995V28c0 4.969 3.994 8.995 8.923 8.995h.581c4.928 0 8.923-4.027 8.923-8.995v-.287c0-4.968-3.995-8.995-8.923-8.995zm-.293 14.128c-2.711 0-4.913-2.234-4.913-4.989 0-2.756 2.198-4.994 4.913-4.994 2.712 0 4.915 2.236 4.915 4.994 0 2.758-2.199 4.99-4.915 4.99v-.001z" fill="#16162D"/></svg><svg fill="none" viewBox="0 0 163 16" id="logodev" xmlns="http://www.w3.org/2000/svg"><path opacity=".75" d="M7.102.084H.537V15.57h6.565V.084zM91.967.084h-6.565V15.57h6.565V.084z" fill="#fff" fill-opacity=".2"/><path opacity=".75" d="M7.102.084H.537v11.142h6.565c3.063 0 5.547-2.494 5.547-5.57 0-3.077-2.484-5.572-5.547-5.572zM28.831 15.57H18.416V.084L28.831 15.57z" fill="#fff" fill-opacity=".2"/><path opacity=".75" d="M23.285.084h-4.869v11.142h4.869c.817 0 1.592-.179 2.29-.497a5.572 5.572 0 003.256-5.074c0-3.076-2.483-5.57-5.546-5.57zM70.756.084L62.68 15.57h16.153L70.756.084z" fill="#fff" fill-opacity=".2"/><path opacity=".75" d="M62.451.084L54.375 15.57h16.153L62.45.084zM42.674 15.57c4.258 0 7.71-3.466 7.71-7.743 0-4.276-3.452-7.743-7.71-7.743s-7.71 3.467-7.71 7.743c0 4.277 3.452 7.743 7.71 7.743zM154.017.084L145.94 15.57h16.153L154.017.084z" fill="#fff" fill-opacity=".2"/><path opacity=".75" d="M145.711.084l-8.076 15.486h16.153L145.711.084zM126.207 15.57c4.258 0 7.71-3.466 7.71-7.743 0-4.276-3.452-7.743-7.71-7.743s-7.71 3.467-7.71 7.743c0 4.277 3.452 7.743 7.71 7.743zM111.606 2.646a7.676 7.676 0 00-7.358-2.387 7.737 7.737 0 00-6.08 7.568 7.737 7.737 0 006.08 7.568 7.676 7.676 0 007.358-2.387l-2.99-5.18 2.99-5.182z" fill="#fff" fill-opacity=".2"/><path opacity=".75" d="M111.606 2.646a7.674 7.674 0 00-7.358-2.387l4.368 7.568 2.99-5.181zM104.248 15.395a7.674 7.674 0 007.358-2.387l-2.99-5.18-4.368 7.567zM37.222 13.302a7.67 7.67 0 005.451 2.268c4.258 0 7.71-3.466 7.71-7.743a7.735 7.735 0 00-2.258-5.475l-10.903 10.95zM120.756 13.302a7.67 7.67 0 005.452 2.268c4.258 0 7.709-3.466 7.709-7.743a7.736 7.736 0 00-2.258-5.475l-10.903 10.95z" fill="#fff" fill-opacity=".2"/></svg></svg>